<mxfile host="app.diagrams.net" modified="2023-05-30T02:34:22.455Z" agent="Mozilla/5.0 (Macintosh; Intel Mac OS X 10_15_7) AppleWebKit/537.36 (KHTML, like Gecko) Chrome/113.0.0.0 Safari/537.36" version="21.3.5" etag="6KjfNO84EBuM3FaCV2QG" type="github">
  <diagram name="第 1 页" id="eTH8LCfRAllFdQF4WOqk">
    <mxGraphModel>
      <root>
        <mxCell id="0" />
        <mxCell id="1" parent="0" />
      </root>
    </mxGraphModel>
  </diagram>
</mxfile>
